HIERARCHY
ROOT Hips
{
	OFFSET 0.000000 0.000000 0.000000
	CHANNELS 6 Xposition Yposition Zposition Zrotation Yrotation Xrotation 
	JOINT LHipJoint
	{
		OFFSET 0.000000 0.000000 0.000000
		CHANNELS 3 Zrotation Yrotation Xrotation
		JOINT LeftUpLeg
		{
			OFFSET 1.363060 -1.794630 0.839290
			CHANNELS 3 Zrotation Yrotation Xrotation
			JOINT LeftLeg
			{
				OFFSET 2.448110 -6.726130 0.000000
				CHANNELS 3 Zrotation Yrotation Xrotation
				JOINT LeftFoot
				{
					OFFSET 2.562200 -7.039590 0.000000
					CHANNELS 3 Zrotation Yrotation Xrotation
					JOINT LeftToeBase
					{
						OFFSET 0.157640 -0.433110 2.322550
						CHANNELS 3 Zrotation Yrotation Xrotation
						End Site
						{
							OFFSET 0.000000 0.000000 0.000000
						}
					}
				}
			}
		}
	}
	JOINT RHipJoint
	{
		OFFSET 0.000000 0.000000 0.000000
		CHANNELS 3 Zrotation Yrotation Xrotation
		JOINT RightUpLeg
		{
			OFFSET -1.305520 -1.794630 0.839290
			CHANNELS 3 Zrotation Yrotation Xrotation
			JOINT RightLeg
			{
				OFFSET -2.542530 -6.985550 0.000000
				CHANNELS 3 Zrotation Yrotation Xrotation
				JOINT RightFoot
				{
					OFFSET -2.568260 -7.056230 0.000000
					CHANNELS 3 Zrotation Yrotation Xrotation
					JOINT RightToeBase
					{
						OFFSET -0.164730 -0.452590 2.363150
						CHANNELS 3 Zrotation Yrotation Xrotation
						End Site
						{
							OFFSET 0.000000 0.000000 0.000000
						}
					}
				}
			}
		}
	}
	JOINT LowerBack
	{
		OFFSET 0.000000 0.000000 0.000000
		CHANNELS 3 Zrotation Yrotation Xrotation
		JOINT Spine
		{
			OFFSET 0.028270 2.035590 -0.193380
			CHANNELS 3 Zrotation Yrotation Xrotation
			JOINT Spine1
			{
				OFFSET 0.056720 2.048850 -0.042750
				CHANNELS 3 Zrotation Yrotation Xrotation
				JOINT Neck
				{
					OFFSET 0.000000 0.000000 0.000000
					CHANNELS 3 Zrotation Yrotation Xrotation
					JOINT Neck1
					{
						OFFSET -0.054170 1.746240 0.172020
						CHANNELS 3 Zrotation Yrotation Xrotation
						JOINT Head
						{
							OFFSET 0.104070 1.761360 -0.123970
							CHANNELS 3 Zrotation Yrotation Xrotation
							End Site
							{
								OFFSET 0.000000 0.000000 0.000000
							}
						}
					}
				}
				JOINT LeftShoulder
				{
					OFFSET 0.000000 0.000000 0.000000
					CHANNELS 3 Zrotation Yrotation Xrotation
					JOINT LeftArm
					{
						OFFSET 3.362410 1.200890 -0.311210
						CHANNELS 3 Zrotation Yrotation Xrotation
						JOINT LeftForeArm
						{
							OFFSET 4.983000 -0.000000 -0.000000
							CHANNELS 3 Zrotation Yrotation Xrotation
							JOINT LeftHand
							{
								OFFSET 3.483560 -0.000000 -0.000000
								CHANNELS 3 Zrotation Yrotation Xrotation
								JOINT LeftFingerBase
								{
									OFFSET 0.000000 0.000000 0.000000
									CHANNELS 3 Zrotation Yrotation Xrotation
									JOINT LeftHandIndex1
									{
										OFFSET 0.715260 -0.000000 -0.000000
										CHANNELS 3 Zrotation Yrotation Xrotation
										End Site
										{
											OFFSET 0.000000 0.000000 0.000000
										}
									}
								}
								JOINT LThumb
								{
									OFFSET 0.000000 0.000000 0.000000
									CHANNELS 3 Zrotation Yrotation Xrotation
									End Site
									{
										OFFSET 0.000000 0.000000 0.000000
									}
								}
							}
						}
					}
				}
				JOINT RightShoulder
				{
					OFFSET 0.000000 0.000000 0.000000
					CHANNELS 3 Zrotation Yrotation Xrotation
					JOINT RightArm
					{
						OFFSET -3.136600 1.374050 -0.404650
						CHANNELS 3 Zrotation Yrotation Xrotation
						JOINT RightForeArm
						{
							OFFSET -5.241900 -0.000000 -0.000000
							CHANNELS 3 Zrotation Yrotation Xrotation
							JOINT RightHand
							{
								OFFSET -3.444170 -0.000000 -0.000000
								CHANNELS 3 Zrotation Yrotation Xrotation
								JOINT RightFingerBase
								{
									OFFSET 0.000000 0.000000 0.000000
									CHANNELS 3 Zrotation Yrotation Xrotation
									JOINT RightHandIndex1
									{
										OFFSET -0.622530 -0.000000 -0.000000
										CHANNELS 3 Zrotation Yrotation Xrotation
										End Site
										{
											OFFSET 0.000000 0.000000 0.000000
										}
									}
								}
								JOINT RThumb
								{
									OFFSET 0.000000 0.000000 0.000000
									CHANNELS 3 Zrotation Yrotation Xrotation
									End Site
									{
										OFFSET 0.000000 0.000000 0.000000
									}
								}
							}
						}
					}
				}
			}
		}
	}
}
MOTION
Frames: 11
Frame Time: 0.008333
4.720224 18.212426 -7.860847 -4.795329 11.737258 11.165809 -2.053867 -0.777668 -1.723600 -9.649083 -8.400133 -36.600671 10.932510 18.017378 62.657066 -0.035809 -3.207154 7.459695 4.602100 12.921200 39.074200 0.225302 0.176352 -0.791437 26.879172 6.308389 -26.269748 -6.114111 -13.301214 42.826692 0.393232 10.163521 -3.385449 -1.555800 -7.872100 22.326300 3.529587 2.367172 5.602261 2.319870 3.464294 -0.819164 1.879872 1.310563 3.599622 -0.720618 -8.244841 -14.366783 2.924374 -11.987253 42.852035 -1.383900 -4.379800 14.490900 10.221061 -3.043896 4.187413 -92.922078 33.119255 43.711881 40.594256 -47.080726 -13.290645 -1.383253 1.718071 -9.213666 -3.373970 11.403342 -0.375700 -7.125000 0.000000 0.000000 -24.776500 38.248700 4.450600 -9.508216 3.146040 -0.639488 83.373075 17.936088 56.934090 -154.738736 35.843957 -111.596231 1.771269 2.723352 -20.718660 -63.086121 -36.321940 52.951500 7.125000 0.000000 0.000000 -83.701500 76.184000 -97.658600 
4.710253 18.253988 -7.806585 -5.540226 12.261100 10.927733 -1.956152 -0.836110 -1.860325 -8.506275 -9.177872 -38.314450 11.660558 18.352591 64.917009 0.003162 -3.003316 8.849437 5.020400 13.406700 40.910700 0.178562 0.160596 -0.769609 27.994913 5.992906 -25.203825 -5.744062 -12.862087 41.133508 0.329551 9.496682 -3.854670 -1.391000 -7.461900 21.091100 4.208387 2.281798 5.706531 2.589572 3.362222 -0.812865 1.854038 1.285612 3.592167 -0.730657 -8.282532 -14.382682 2.940245 -12.042638 42.852290 -1.384400 -4.404500 14.493500 10.206618 -3.035239 4.200921 -92.866601 33.412574 43.521755 41.132456 -47.410046 -13.606986 -1.439299 1.665728 -9.532907 -4.353766 11.792979 -0.552600 -7.125000 0.000000 0.000000 -25.658300 38.561900 4.419900 -9.497715 3.152573 -0.641588 83.352176 17.880500 56.896478 -154.825231 35.754231 -111.653883 1.796172 2.721900 -20.453697 -62.911560 -36.189719 52.663800 7.125000 0.000000 0.000000 -96.581700 -76.160800 82.616800 
4.700282 18.284531 -7.749803 -6.149572 12.813339 10.687815 -1.876186 -0.891076 -1.982506 -7.538678 -9.998402 -39.888311 12.288807 18.615460 66.845083 0.023048 -3.099187 9.599531 5.267800 13.679100 41.967000 0.139842 0.149485 -0.750780 28.958056 5.605191 -24.092077 -5.365974 -12.397182 39.373685 0.246688 8.786874 -4.752223 -1.240700 -7.062900 19.901800 4.783888 2.174153 5.799563 2.818869 3.229774 -0.803126 1.823071 1.241815 3.591441 -0.749799 -8.319454 -14.386394 2.973020 -12.100826 42.830263 -1.377600 -4.430200 14.484200 10.189984 -3.029621 4.214686 -92.784155 33.728980 43.342890 41.673630 -47.732717 -13.932158 -1.489424 1.617543 -10.043206 -5.183740 12.198580 -0.719200 -7.125000 0.000000 0.000000 -26.437400 38.889100 4.344400 -9.487649 3.157876 -0.644569 83.371569 17.828456 56.871280 -154.902813 35.670580 -111.707013 1.823510 2.718698 -20.150311 -62.724597 -36.051888 52.356500 7.125000 0.000000 0.000000 -95.450900 -76.176200 81.437400 
4.689891 18.303108 -7.690607 -6.606885 13.350787 10.448710 -1.814815 -0.940400 -2.087359 -6.782697 -10.806200 -41.293066 12.789330 18.808244 68.368147 0.022642 -3.334540 9.843302 5.387000 13.806700 42.468700 0.109845 0.143311 -0.735863 29.739720 5.195148 -22.951444 -4.990960 -11.917947 37.594954 0.140450 7.977851 -6.018466 -1.108200 -6.688400 18.795300 5.230348 2.063973 5.889658 3.003649 3.093452 -0.786111 1.799555 1.191496 3.595168 -0.780060 -8.359898 -14.385867 3.007512 -12.161227 42.799921 -1.369200 -4.457900 14.470900 10.174486 -3.027377 4.225577 -92.668601 34.030015 43.215334 42.151019 -48.006670 -14.221796 -1.530943 1.574772 -10.686606 -5.845097 12.572467 -0.865400 -7.125000 0.000000 0.000000 -27.082800 39.190300 4.248900 -9.479719 3.163390 -0.647057 83.423581 17.773113 56.838099 -154.971694 35.593294 -111.754847 1.851214 2.715121 -19.830729 -62.555109 -35.926616 52.079100 7.125000 0.000000 0.000000 -94.426600 -76.185400 80.369200 
4.679081 18.309511 -7.629313 -6.922837 13.827074 10.212026 -1.770152 -0.982461 -2.173435 -6.239770 -11.546829 -42.505020 13.141416 18.935211 69.430397 0.010991 -3.554821 9.764901 5.421200 13.843000 42.612100 0.088079 0.141540 -0.725236 30.342787 4.817541 -21.800262 -4.630750 -11.439116 35.851894 0.010037 7.017117 -7.557810 -0.991100 -6.336300 17.763200 5.547277 1.972469 5.985556 3.146187 2.982391 -0.763449 1.791159 1.149124 3.595065 -0.822411 -8.407472 -14.382365 3.028093 -12.222998 42.780163 -1.365100 -4.488700 14.462100 10.162550 -3.028814 4.232260 -92.525788 34.291144 43.151875 42.510507 -48.201332 -14.439528 -1.563814 1.538881 -11.363936 -6.349323 12.894583 -0.986700 -7.125000 0.000000 0.000000 -27.593500 39.449200 4.149800 -9.474738 3.170819 -0.647957 83.497458 17.702479 56.784237 -155.029309 35.524965 -111.795209 1.876805 2.712281 -19.524277 -62.429343 -35.827168 51.872300 7.125000 0.000000 0.000000 -93.649000 -76.186300 79.555000 
4.668165 18.303003 -7.566548 -7.125795 14.201802 9.987915 -1.738259 -1.016938 -2.241552 -5.881913 -12.185189 -43.520392 13.332987 19.001811 70.001005 0.000460 -3.643613 9.574957 5.424000 13.845900 42.623700 0.072628 0.142628 -0.718539 30.790595 4.508502 -20.686132 -4.298809 -10.979231 34.209469 -0.132042 5.906051 -9.162548 -0.897400 -6.037700 16.893800 5.765021 1.913720 6.089428 3.248814 2.915417 -0.738897 1.786630 1.125067 3.586274 -0.873972 -8.459735 -14.379825 3.023056 -12.279025 42.782931 -1.368900 -4.520200 14.463300 10.155660 -3.033436 4.234478 -92.370383 34.493334 43.132440 42.707186 -48.293042 -14.554116 -1.588459 1.509966 -11.967171 -6.732504 13.135965 -1.082800 -7.125000 0.000000 0.000000 -27.983700 39.640700 4.073800 -9.473579 3.181062 -0.646923 83.588321 17.611007 56.717297 -155.078388 35.462629 -111.829654 1.898552 2.711206 -19.255315 -62.354686 -35.761325 51.750400 7.125000 0.000000 0.000000 -93.187100 -76.181900 79.067200 
4.658509 18.283271 -7.503364 -7.258673 14.439260 9.788056 -1.714540 -1.044793 -2.293704 -5.654805 -12.702897 -44.347802 13.361434 19.013056 70.075851 -0.000659 -3.584991 9.467544 5.451800 13.875200 42.739800 0.061415 0.144849 -0.714968 31.124777 4.259242 -19.667082 -4.006892 -10.557022 32.728449 -0.267366 4.769160 -10.661642 -0.898700 -6.041700 16.905600 5.933557 1.898280 6.196627 3.317798 2.906230 -0.718573 1.768495 1.127722 3.565117 -0.933270 -8.512666 -14.382923 2.986064 -12.321560 42.816767 -1.382000 -4.549400 14.478900 10.153012 -3.040148 4.233952 -92.223548 34.640086 43.124366 42.746292 -48.288272 -14.567783 -1.606085 1.487551 -12.412043 -7.033536 13.287353 -1.157000 -7.125000 0.000000 0.000000 -28.277600 39.756700 4.035600 -9.475864 3.193731 -0.644468 83.687958 17.502872 56.647580 -155.120312 35.406089 -111.858356 1.914458 2.713424 -19.045915 -62.353709 -35.748424 51.754200 7.125000 0.000000 0.000000 -93.180800 -76.174700 79.053000 
4.651162 18.250840 -7.440705 -7.361268 14.522166 9.625907 -1.695714 -1.067619 -2.332466 -5.493010 -13.112507 -45.001974 13.231903 18.972043 69.672965 0.010456 -3.447931 9.584455 5.508400 13.934400 42.975200 0.053535 0.147094 -0.713503 31.391387 4.005261 -18.810406 -3.764495 -10.190726 31.463513 -0.385104 3.836888 -11.996963 -0.963700 -6.250600 17.513400 6.097336 1.927267 6.298267 3.360622 2.955963 -0.707577 1.723934 1.159085 3.532224 -0.995667 -8.559135 -14.393244 2.913582 -12.339881 42.875127 -1.403800 -4.572300 14.505900 10.153482 -3.047259 4.233139 -92.110968 34.738572 43.088343 42.636865 -48.194556 -14.486132 -1.616037 1.471993 -12.643447 -7.258817 13.326448 -1.206200 -7.125000 0.000000 0.000000 -28.470000 39.778600 4.051800 -9.480621 3.207470 -0.641692 83.784439 17.395449 56.590132 -155.154564 35.357932 -111.880915 1.923862 2.718441 -18.907179 -62.410069 -35.783736 51.858900 7.125000 0.000000 0.000000 -93.558300 -76.168900 79.441300 
4.647174 18.206863 -7.379620 -7.458564 14.443850 9.516748 -1.680116 -1.087111 -2.360653 -5.339543 -13.449990 -45.502370 12.959985 18.881280 68.838181 0.035399 -3.330923 10.030821 5.579900 14.008500 43.271600 0.048163 0.148420 -0.713280 31.620151 3.683175 -18.163849 -3.576720 -9.893322 30.451158 -0.481044 3.290642 -13.111552 -1.085700 -6.622300 18.601200 6.288676 1.995000 6.380329 3.382732 3.055297 -0.708511 1.642910 1.215374 3.494803 -1.053842 -8.589812 -14.419516 2.801205 -12.319321 42.944729 -1.434400 -4.583000 14.539400 10.154405 -3.052302 4.235147 -92.057665 34.806989 42.985052 42.428021 -48.044345 -14.343734 -1.620268 1.465558 -12.649620 -7.393645 13.300834 -1.230300 -7.125000 0.000000 0.000000 -28.565200 39.748600 4.091900 -9.486833 3.220020 -0.639900 83.864669 17.311877 56.572322 -155.183611 35.317913 -111.899093 1.928066 2.725206 -18.838966 -62.506401 -35.843419 52.027400 7.125000 0.000000 0.000000 -94.162500 -76.158100 80.062700 
4.647174 18.153125 -7.320635 -7.561143 14.211303 9.462601 -1.668245 -1.104253 -2.380334 -5.151932 -13.765741 -45.853620 12.575589 18.745058 67.658747 0.074806 -3.280100 10.794080 5.639300 14.069400 43.516200 0.045187 0.148525 -0.713751 31.821514 3.265543 -17.746252 -3.446563 -9.676814 29.722787 -0.554415 3.233611 -13.972430 -1.299000 -7.220900 20.371400 6.517024 2.091771 6.438450 3.389068 3.191115 -0.719611 1.527634 1.289981 3.460037 -1.106118 -8.598109 -14.453060 2.655216 -12.251786 42.997753 -1.469200 -4.578600 14.565200 10.154053 -3.053958 4.242620 -92.084031 34.858911 42.793160 42.160552 -47.865037 -14.169767 -1.619230 1.471697 -12.469091 -7.385629 13.254480 -1.223000 -7.125000 0.000000 0.000000 -28.537800 39.707000 4.119800 -9.493238 3.229345 -0.640140 83.918437 17.270216 56.604546 -155.207545 35.287694 -111.913522 1.928799 2.731945 -18.809704 -62.595637 -35.919220 52.194300 7.125000 0.000000 0.000000 -94.786100 -76.156600 80.716300 
4.650742 18.093300 -7.263748 -7.663439 13.849708 9.456577 -1.662259 -1.119173 -2.392880 -4.896718 -14.123349 -46.048506 12.128484 18.575201 66.280981 0.126647 -3.308732 11.775919 5.704900 14.136200 43.785700 0.045353 0.147927 -0.714583 31.994716 2.753024 -17.545082 -3.373280 -9.547414 29.292243 -0.609810 3.670506 -14.629165 -1.580400 -7.931100 22.505100 6.766277 2.203389 6.472815 3.385612 3.344040 -0.736036 1.395980 1.372724 3.435119 -1.152562 -8.578905 -14.483741 2.483225 -12.131775 43.007559 -1.503200 -4.557300 14.569300 10.151522 -3.051451 4.257282 -92.204017 34.902026 42.517147 41.861434 -47.675539 -13.983910 -1.611972 1.493124 -12.170105 -7.176405 13.212821 -1.175700 -7.125000 0.000000 0.000000 -28.352700 39.677600 4.110300 -9.498402 3.233914 -0.642717 83.932679 17.284881 56.699788 -155.222526 35.272842 -111.921930 1.929484 2.736606 -18.781017 -62.661416 -35.985287 52.323100 7.125000 0.000000 0.000000 -95.278800 -76.158700 81.237300 
